<mxfile host="app.diagrams.net" modified="2022-03-10T04:27:15.828Z" agent="5.0 (Windows NT 10.0; Win64; x64) AppleWebKit/537.36 (KHTML, like Gecko) Chrome/99.0.4844.51 Safari/537.36" etag="WQx2Rs4jWqoVlU19gZu3" version="17.1.0" type="github">
  <diagram id="Nd7Q3TVraV60mRgbKxLl" name="Page-1">
    <mxGraphModel dx="1323" dy="659" grid="1" gridSize="10" guides="1" tooltips="1" connect="1" arrows="1" fold="1" page="1" pageScale="1" pageWidth="827" pageHeight="1169" math="0" shadow="0">
      <root>
        <mxCell id="0" />
        <mxCell id="1" parent="0" />
        <mxCell id="CmC81eJXV_4zMr-YZ4sl-3" value="" style="swimlane;startSize=20;swimlaneLine=0;fillColor=none;dashed=1;collapsible=0;" parent="1" vertex="1">
          <mxGeometry x="50" y="160" width="40" height="200" as="geometry">
            <mxRectangle x="50" y="160" width="50" height="40" as="alternateBounds" />
          </mxGeometry>
        </mxCell>
        <mxCell id="CmC81eJXV_4zMr-YZ4sl-6" value="" style="dashed=0;outlineConnect=0;html=1;align=center;labelPosition=center;verticalLabelPosition=bottom;verticalAlign=top;shape=mxgraph.webicons.chrome;gradientColor=#DFDEDE" parent="CmC81eJXV_4zMr-YZ4sl-3" vertex="1">
          <mxGeometry x="5" y="40" width="30" height="44" as="geometry" />
        </mxCell>
        <mxCell id="CmC81eJXV_4zMr-YZ4sl-7" value="" style="verticalLabelPosition=bottom;html=1;verticalAlign=top;align=center;strokeColor=none;fillColor=#00BEF2;shape=mxgraph.azure.mobile;pointerEvents=1;" parent="CmC81eJXV_4zMr-YZ4sl-3" vertex="1">
          <mxGeometry x="10" y="150" width="20" height="30" as="geometry" />
        </mxCell>
        <mxCell id="CmC81eJXV_4zMr-YZ4sl-4" value="User" style="verticalLabelPosition=bottom;html=1;verticalAlign=top;align=center;strokeColor=none;fillColor=#00BEF2;shape=mxgraph.azure.user;" parent="1" vertex="1">
          <mxGeometry x="10" y="220" width="30" height="30" as="geometry" />
        </mxCell>
        <mxCell id="CmC81eJXV_4zMr-YZ4sl-9" value="Identity Microservice" style="swimlane;startSize=20;glass=0;swimlaneLine=1;dashed=1;strokeWidth=1;swimlaneFillColor=none;rounded=1;shadow=0;sketch=0;swimlaneHead=1;horizontal=1;noLabel=0;collapsible=0;" parent="1" vertex="1">
          <mxGeometry x="461" y="67" width="190" height="90" as="geometry">
            <mxRectangle x="140" y="55" width="50" height="40" as="alternateBounds" />
          </mxGeometry>
        </mxCell>
        <mxCell id="CmC81eJXV_4zMr-YZ4sl-12" value="API" style="rounded=0;whiteSpace=wrap;html=1;shadow=0;glass=0;dashed=1;sketch=0;strokeWidth=1;fillColor=#CCB77A;" parent="CmC81eJXV_4zMr-YZ4sl-9" vertex="1">
          <mxGeometry x="20" y="40" width="60" height="30" as="geometry" />
        </mxCell>
        <mxCell id="CmC81eJXV_4zMr-YZ4sl-22" value="" style="shape=image;verticalLabelPosition=bottom;labelBackgroundColor=default;verticalAlign=top;aspect=fixed;imageAspect=0;image=data:image/png,iVBORw0KGgoAAAANSUhEUgAAACEAAAAgCAYAAACcuBHKAAACjklEQVR4nO2XzW7TQBSFryqjGFFk94e6rYQShJBgAURsYEcfgSW75g1gyTJ9AuAJ0u5Y9hHCruwCC366SlpIm1YlNklVR0QK94yvE8cak7Q0EQsf6cqOf+Z848yMzhi9Xo/OoTyXJedrCc+U5ehxVcZp1Bhh+FTMcJ4bp0GNqgJT5nqvA4tD2FwvuAo609N2g7q/ffJ9l/wzV+toXrXJNG0yrph0bdYhaQf1LAK1yfWWy41DwLgU/vB9j7xmlTy3qo5JpqMEKGsuR5adU0fTtABUjNRGCFESCGocfKSjgwq5zeqFTOMCvH9WoUa9on7bDLK0kidn5SEJRA4QICt0ux368undpZknCe2j0NF7D56TYWQKgHiFm7/cvYkDxGHgOb94R40JHxft+VvqU00LBF7whADh4mRmxqD7j9bp5Pgr1fc/TAwG5qs3H9PCjbv9a/3ZcXL8TY1e3ERhGqrZ0azx1DykduvwQqaz15d5qi5z21mZHba6jjHY8r7T3MLtAQRMdj9vk7OaZ9In6mFTjeJ8v0GAdWSqem5Na2rZWXXMyHoRF6Z+fX9HzRb4DEEEdD792NtRhR6AHL0IeuMEYNIw7o0jLHDoINab05b+iyYu223NC2akd+hpJjPc005n8KX+tqqODaFTsPBIw83zvHmJEJNSChEqhQiVQoRKIUKlEKH+GwhXnfA+Yerm4gmIba7XiOA/OdpNM2NK7FcQcN0yDHMdGbPBUfyI9x6TzJhLbB5JbFvhmChQsFcsORLpohkTqeifdmBq9zWcMUUbXMXowNyk4K95CSh+OJuUMREDEdt0Qgzkr5qYMVk18XpDmr0oycWiFNzXaLArz0YzZjSyjxBMKxR86TJpduV/AFlFEDYNhciRAAAAAElFTkSuQmCC;" parent="CmC81eJXV_4zMr-YZ4sl-9" vertex="1">
          <mxGeometry x="120.75" y="27.5" width="51.56" height="50" as="geometry" />
        </mxCell>
        <mxCell id="CmC81eJXV_4zMr-YZ4sl-24" value="" style="shape=image;verticalLabelPosition=bottom;labelBackgroundColor=default;verticalAlign=top;aspect=fixed;imageAspect=0;image=data:image/png,iVBORw0KGgoAAAANSUhEUgAAABcAAAAICAYAAAASqmTuAAABkElEQVR4nGP5//8/Ay7w+fNn3osXL+rb2NgcwSb/8eNHfiD4iEs/CzbBe/fuKU2YMKFgwYIFCUFBQetwGb58+fLIJUuWxHR2dpZbW1sfxWk40AeMu3fvdp00aVLetm3bvEB8kDgHB8cPXC778eMHx9GjR61Blvv5+W3q7u4uVVNTuwU3HOT1uXPnJk+dOjX7zp07KugG/Pv3j+n9+/eCbGxsv9jZ2X+ysLD8QTYcxt60aZMfyFEpKSlzamtrm6WkpJ6x/Pnzh+Xly5fiT58+lcbmurNnzxqXl5d3/vr1i+3nz5/sf//+ZQZZArLs3LlzRshqQWbNmDEjY+HChfFFRUV9LIKCgu/b29src3NzJ1dVVbUtXrw4FuRamIbQ0NDVFRUVHcg+AVkEwmVlZV0XLlwwQHeQiIjIGwEBgQ/wMAd5AxSBJSUlPSBLNm/e7IstzJmYmP6BxLDFhbOz896cnJwpvr6+m5mZmf9ipBYdHZ0roPADRRQoOPBF6IcPHwR4eXk/x8XFLQL5XF1d/SayPADudcPGIobdqwAAAABJRU5ErkJggg==;" parent="CmC81eJXV_4zMr-YZ4sl-9" vertex="1">
          <mxGeometry x="81.25" y="47.78" width="41.5" height="14.43" as="geometry" />
        </mxCell>
        <mxCell id="1T_O8FafnoM-xf-Qj9W--1" value="Claim Microservice" style="swimlane;startSize=20;glass=0;swimlaneLine=1;dashed=1;strokeWidth=1;swimlaneFillColor=none;rounded=1;shadow=0;sketch=0;swimlaneHead=1;horizontal=1;noLabel=0;collapsible=0;" parent="1" vertex="1">
          <mxGeometry x="461" y="177" width="190" height="90" as="geometry">
            <mxRectangle x="140" y="55" width="50" height="40" as="alternateBounds" />
          </mxGeometry>
        </mxCell>
        <mxCell id="1T_O8FafnoM-xf-Qj9W--2" value="API" style="rounded=0;whiteSpace=wrap;html=1;shadow=0;glass=0;dashed=1;sketch=0;strokeWidth=1;fillColor=#CCB77A;" parent="1T_O8FafnoM-xf-Qj9W--1" vertex="1">
          <mxGeometry x="20" y="40" width="60" height="30" as="geometry" />
        </mxCell>
        <mxCell id="1T_O8FafnoM-xf-Qj9W--3" value="" style="shape=image;verticalLabelPosition=bottom;labelBackgroundColor=default;verticalAlign=top;aspect=fixed;imageAspect=0;image=data:image/png,iVBORw0KGgoAAAANSUhEUgAAACEAAAAgCAYAAACcuBHKAAACjklEQVR4nO2XzW7TQBSFryqjGFFk94e6rYQShJBgAURsYEcfgSW75g1gyTJ9AuAJ0u5Y9hHCruwCC366SlpIm1YlNklVR0QK94yvE8cak7Q0EQsf6cqOf+Z848yMzhi9Xo/OoTyXJedrCc+U5ehxVcZp1Bhh+FTMcJ4bp0GNqgJT5nqvA4tD2FwvuAo609N2g7q/ffJ9l/wzV+toXrXJNG0yrph0bdYhaQf1LAK1yfWWy41DwLgU/vB9j7xmlTy3qo5JpqMEKGsuR5adU0fTtABUjNRGCFESCGocfKSjgwq5zeqFTOMCvH9WoUa9on7bDLK0kidn5SEJRA4QICt0ux368undpZknCe2j0NF7D56TYWQKgHiFm7/cvYkDxGHgOb94R40JHxft+VvqU00LBF7whADh4mRmxqD7j9bp5Pgr1fc/TAwG5qs3H9PCjbv9a/3ZcXL8TY1e3ERhGqrZ0azx1DykduvwQqaz15d5qi5z21mZHba6jjHY8r7T3MLtAQRMdj9vk7OaZ9In6mFTjeJ8v0GAdWSqem5Na2rZWXXMyHoRF6Z+fX9HzRb4DEEEdD792NtRhR6AHL0IeuMEYNIw7o0jLHDoINab05b+iyYu223NC2akd+hpJjPc005n8KX+tqqODaFTsPBIw83zvHmJEJNSChEqhQiVQoRKIUKlEKH+GwhXnfA+Yerm4gmIba7XiOA/OdpNM2NK7FcQcN0yDHMdGbPBUfyI9x6TzJhLbB5JbFvhmChQsFcsORLpohkTqeifdmBq9zWcMUUbXMXowNyk4K95CSh+OJuUMREDEdt0Qgzkr5qYMVk18XpDmr0oycWiFNzXaLArz0YzZjSyjxBMKxR86TJpduV/AFlFEDYNhciRAAAAAElFTkSuQmCC;" parent="1T_O8FafnoM-xf-Qj9W--1" vertex="1">
          <mxGeometry x="120.75" y="27.5" width="51.56" height="50" as="geometry" />
        </mxCell>
        <mxCell id="1T_O8FafnoM-xf-Qj9W--4" value="" style="shape=image;verticalLabelPosition=bottom;labelBackgroundColor=default;verticalAlign=top;aspect=fixed;imageAspect=0;image=data:image/png,iVBORw0KGgoAAAANSUhEUgAAABcAAAAICAYAAAASqmTuAAABkElEQVR4nGP5//8/Ay7w+fNn3osXL+rb2NgcwSb/8eNHfiD4iEs/CzbBe/fuKU2YMKFgwYIFCUFBQetwGb58+fLIJUuWxHR2dpZbW1sfxWk40AeMu3fvdp00aVLetm3bvEB8kDgHB8cPXC778eMHx9GjR61Blvv5+W3q7u4uVVNTuwU3HOT1uXPnJk+dOjX7zp07KugG/Pv3j+n9+/eCbGxsv9jZ2X+ysLD8QTYcxt60aZMfyFEpKSlzamtrm6WkpJ6x/Pnzh+Xly5fiT58+lcbmurNnzxqXl5d3/vr1i+3nz5/sf//+ZQZZArLs3LlzRshqQWbNmDEjY+HChfFFRUV9LIKCgu/b29src3NzJ1dVVbUtXrw4FuRamIbQ0NDVFRUVHcg+AVkEwmVlZV0XLlwwQHeQiIjIGwEBgQ/wMAd5AxSBJSUlPSBLNm/e7IstzJmYmP6BxLDFhbOz896cnJwpvr6+m5mZmf9ipBYdHZ0roPADRRQoOPBF6IcPHwR4eXk/x8XFLQL5XF1d/SayPADudcPGIobdqwAAAABJRU5ErkJggg==;" parent="1T_O8FafnoM-xf-Qj9W--1" vertex="1">
          <mxGeometry x="81.25" y="47.78" width="41.5" height="14.43" as="geometry" />
        </mxCell>
        <mxCell id="1T_O8FafnoM-xf-Qj9W--9" value="Notification Microservice" style="swimlane;startSize=20;glass=0;swimlaneLine=1;dashed=1;strokeWidth=1;swimlaneFillColor=none;rounded=1;shadow=0;sketch=0;swimlaneHead=1;horizontal=1;noLabel=0;collapsible=0;" parent="1" vertex="1">
          <mxGeometry x="461" y="287" width="190" height="90" as="geometry">
            <mxRectangle x="140" y="55" width="50" height="40" as="alternateBounds" />
          </mxGeometry>
        </mxCell>
        <mxCell id="1T_O8FafnoM-xf-Qj9W--10" value="API" style="rounded=0;whiteSpace=wrap;html=1;shadow=0;glass=0;dashed=1;sketch=0;strokeWidth=1;fillColor=#CCB77A;" parent="1T_O8FafnoM-xf-Qj9W--9" vertex="1">
          <mxGeometry x="20" y="40" width="60" height="30" as="geometry" />
        </mxCell>
        <mxCell id="1T_O8FafnoM-xf-Qj9W--11" value="" style="shape=image;verticalLabelPosition=bottom;labelBackgroundColor=default;verticalAlign=top;aspect=fixed;imageAspect=0;image=data:image/png,iVBORw0KGgoAAAANSUhEUgAAACEAAAAgCAYAAACcuBHKAAACjklEQVR4nO2XzW7TQBSFryqjGFFk94e6rYQShJBgAURsYEcfgSW75g1gyTJ9AuAJ0u5Y9hHCruwCC366SlpIm1YlNklVR0QK94yvE8cak7Q0EQsf6cqOf+Z848yMzhi9Xo/OoTyXJedrCc+U5ehxVcZp1Bhh+FTMcJ4bp0GNqgJT5nqvA4tD2FwvuAo609N2g7q/ffJ9l/wzV+toXrXJNG0yrph0bdYhaQf1LAK1yfWWy41DwLgU/vB9j7xmlTy3qo5JpqMEKGsuR5adU0fTtABUjNRGCFESCGocfKSjgwq5zeqFTOMCvH9WoUa9on7bDLK0kidn5SEJRA4QICt0ux368undpZknCe2j0NF7D56TYWQKgHiFm7/cvYkDxGHgOb94R40JHxft+VvqU00LBF7whADh4mRmxqD7j9bp5Pgr1fc/TAwG5qs3H9PCjbv9a/3ZcXL8TY1e3ERhGqrZ0azx1DykduvwQqaz15d5qi5z21mZHba6jjHY8r7T3MLtAQRMdj9vk7OaZ9In6mFTjeJ8v0GAdWSqem5Na2rZWXXMyHoRF6Z+fX9HzRb4DEEEdD792NtRhR6AHL0IeuMEYNIw7o0jLHDoINab05b+iyYu223NC2akd+hpJjPc005n8KX+tqqODaFTsPBIw83zvHmJEJNSChEqhQiVQoRKIUKlEKH+GwhXnfA+Yerm4gmIba7XiOA/OdpNM2NK7FcQcN0yDHMdGbPBUfyI9x6TzJhLbB5JbFvhmChQsFcsORLpohkTqeifdmBq9zWcMUUbXMXowNyk4K95CSh+OJuUMREDEdt0Qgzkr5qYMVk18XpDmr0oycWiFNzXaLArz0YzZjSyjxBMKxR86TJpduV/AFlFEDYNhciRAAAAAElFTkSuQmCC;" parent="1T_O8FafnoM-xf-Qj9W--9" vertex="1">
          <mxGeometry x="120.75" y="27.5" width="51.56" height="50" as="geometry" />
        </mxCell>
        <mxCell id="1T_O8FafnoM-xf-Qj9W--12" value="" style="shape=image;verticalLabelPosition=bottom;labelBackgroundColor=default;verticalAlign=top;aspect=fixed;imageAspect=0;image=data:image/png,iVBORw0KGgoAAAANSUhEUgAAABcAAAAICAYAAAASqmTuAAABkElEQVR4nGP5//8/Ay7w+fNn3osXL+rb2NgcwSb/8eNHfiD4iEs/CzbBe/fuKU2YMKFgwYIFCUFBQetwGb58+fLIJUuWxHR2dpZbW1sfxWk40AeMu3fvdp00aVLetm3bvEB8kDgHB8cPXC778eMHx9GjR61Blvv5+W3q7u4uVVNTuwU3HOT1uXPnJk+dOjX7zp07KugG/Pv3j+n9+/eCbGxsv9jZ2X+ysLD8QTYcxt60aZMfyFEpKSlzamtrm6WkpJ6x/Pnzh+Xly5fiT58+lcbmurNnzxqXl5d3/vr1i+3nz5/sf//+ZQZZArLs3LlzRshqQWbNmDEjY+HChfFFRUV9LIKCgu/b29src3NzJ1dVVbUtXrw4FuRamIbQ0NDVFRUVHcg+AVkEwmVlZV0XLlwwQHeQiIjIGwEBgQ/wMAd5AxSBJSUlPSBLNm/e7IstzJmYmP6BxLDFhbOz896cnJwpvr6+m5mZmf9ipBYdHZ0roPADRRQoOPBF6IcPHwR4eXk/x8XFLQL5XF1d/SayPADudcPGIobdqwAAAABJRU5ErkJggg==;" parent="1T_O8FafnoM-xf-Qj9W--9" vertex="1">
          <mxGeometry x="81.25" y="47.78" width="41.5" height="14.43" as="geometry" />
        </mxCell>
        <mxCell id="1T_O8FafnoM-xf-Qj9W--13" value="Insurance Microservice" style="swimlane;startSize=20;glass=0;swimlaneLine=1;dashed=1;strokeWidth=1;swimlaneFillColor=none;rounded=1;shadow=0;sketch=0;swimlaneHead=1;horizontal=1;noLabel=0;collapsible=0;" parent="1" vertex="1">
          <mxGeometry x="461" y="399" width="190" height="90" as="geometry">
            <mxRectangle x="140" y="55" width="50" height="40" as="alternateBounds" />
          </mxGeometry>
        </mxCell>
        <mxCell id="1T_O8FafnoM-xf-Qj9W--14" value="API" style="rounded=0;whiteSpace=wrap;html=1;shadow=0;glass=0;dashed=1;sketch=0;strokeWidth=1;fillColor=#CCB77A;" parent="1T_O8FafnoM-xf-Qj9W--13" vertex="1">
          <mxGeometry x="20" y="40" width="60" height="30" as="geometry" />
        </mxCell>
        <mxCell id="1T_O8FafnoM-xf-Qj9W--15" value="" style="shape=image;verticalLabelPosition=bottom;labelBackgroundColor=default;verticalAlign=top;aspect=fixed;imageAspect=0;image=data:image/png,iVBORw0KGgoAAAANSUhEUgAAACEAAAAgCAYAAACcuBHKAAACjklEQVR4nO2XzW7TQBSFryqjGFFk94e6rYQShJBgAURsYEcfgSW75g1gyTJ9AuAJ0u5Y9hHCruwCC366SlpIm1YlNklVR0QK94yvE8cak7Q0EQsf6cqOf+Z848yMzhi9Xo/OoTyXJedrCc+U5ehxVcZp1Bhh+FTMcJ4bp0GNqgJT5nqvA4tD2FwvuAo609N2g7q/ffJ9l/wzV+toXrXJNG0yrph0bdYhaQf1LAK1yfWWy41DwLgU/vB9j7xmlTy3qo5JpqMEKGsuR5adU0fTtABUjNRGCFESCGocfKSjgwq5zeqFTOMCvH9WoUa9on7bDLK0kidn5SEJRA4QICt0ux368undpZknCe2j0NF7D56TYWQKgHiFm7/cvYkDxGHgOb94R40JHxft+VvqU00LBF7whADh4mRmxqD7j9bp5Pgr1fc/TAwG5qs3H9PCjbv9a/3ZcXL8TY1e3ERhGqrZ0azx1DykduvwQqaz15d5qi5z21mZHba6jjHY8r7T3MLtAQRMdj9vk7OaZ9In6mFTjeJ8v0GAdWSqem5Na2rZWXXMyHoRF6Z+fX9HzRb4DEEEdD792NtRhR6AHL0IeuMEYNIw7o0jLHDoINab05b+iyYu223NC2akd+hpJjPc005n8KX+tqqODaFTsPBIw83zvHmJEJNSChEqhQiVQoRKIUKlEKH+GwhXnfA+Yerm4gmIba7XiOA/OdpNM2NK7FcQcN0yDHMdGbPBUfyI9x6TzJhLbB5JbFvhmChQsFcsORLpohkTqeifdmBq9zWcMUUbXMXowNyk4K95CSh+OJuUMREDEdt0Qgzkr5qYMVk18XpDmr0oycWiFNzXaLArz0YzZjSyjxBMKxR86TJpduV/AFlFEDYNhciRAAAAAElFTkSuQmCC;" parent="1T_O8FafnoM-xf-Qj9W--13" vertex="1">
          <mxGeometry x="120.75" y="27.5" width="51.56" height="50" as="geometry" />
        </mxCell>
        <mxCell id="1T_O8FafnoM-xf-Qj9W--16" value="" style="shape=image;verticalLabelPosition=bottom;labelBackgroundColor=default;verticalAlign=top;aspect=fixed;imageAspect=0;image=data:image/png,iVBORw0KGgoAAAANSUhEUgAAABcAAAAICAYAAAASqmTuAAABkElEQVR4nGP5//8/Ay7w+fNn3osXL+rb2NgcwSb/8eNHfiD4iEs/CzbBe/fuKU2YMKFgwYIFCUFBQetwGb58+fLIJUuWxHR2dpZbW1sfxWk40AeMu3fvdp00aVLetm3bvEB8kDgHB8cPXC778eMHx9GjR61Blvv5+W3q7u4uVVNTuwU3HOT1uXPnJk+dOjX7zp07KugG/Pv3j+n9+/eCbGxsv9jZ2X+ysLD8QTYcxt60aZMfyFEpKSlzamtrm6WkpJ6x/Pnzh+Xly5fiT58+lcbmurNnzxqXl5d3/vr1i+3nz5/sf//+ZQZZArLs3LlzRshqQWbNmDEjY+HChfFFRUV9LIKCgu/b29src3NzJ1dVVbUtXrw4FuRamIbQ0NDVFRUVHcg+AVkEwmVlZV0XLlwwQHeQiIjIGwEBgQ/wMAd5AxSBJSUlPSBLNm/e7IstzJmYmP6BxLDFhbOz896cnJwpvr6+m5mZmf9ipBYdHZ0roPADRRQoOPBF6IcPHwR4eXk/x8XFLQL5XF1d/SayPADudcPGIobdqwAAAABJRU5ErkJggg==;" parent="1T_O8FafnoM-xf-Qj9W--13" vertex="1">
          <mxGeometry x="81.25" y="47.78" width="41.5" height="14.43" as="geometry" />
        </mxCell>
        <mxCell id="1T_O8FafnoM-xf-Qj9W--18" value="Payment Microservice" style="swimlane;startSize=20;glass=0;swimlaneLine=1;dashed=1;strokeWidth=1;swimlaneFillColor=none;rounded=1;shadow=0;sketch=0;swimlaneHead=1;horizontal=1;noLabel=0;collapsible=0;" parent="1" vertex="1">
          <mxGeometry x="461" y="507" width="190" height="90" as="geometry">
            <mxRectangle x="140" y="55" width="50" height="40" as="alternateBounds" />
          </mxGeometry>
        </mxCell>
        <mxCell id="1T_O8FafnoM-xf-Qj9W--19" value="API" style="rounded=0;whiteSpace=wrap;html=1;shadow=0;glass=0;dashed=1;sketch=0;strokeWidth=1;fillColor=#CCB77A;" parent="1T_O8FafnoM-xf-Qj9W--18" vertex="1">
          <mxGeometry x="20" y="40" width="60" height="30" as="geometry" />
        </mxCell>
        <mxCell id="1T_O8FafnoM-xf-Qj9W--20" value="" style="shape=image;verticalLabelPosition=bottom;labelBackgroundColor=default;verticalAlign=top;aspect=fixed;imageAspect=0;image=data:image/png,iVBORw0KGgoAAAANSUhEUgAAACEAAAAgCAYAAACcuBHKAAACjklEQVR4nO2XzW7TQBSFryqjGFFk94e6rYQShJBgAURsYEcfgSW75g1gyTJ9AuAJ0u5Y9hHCruwCC366SlpIm1YlNklVR0QK94yvE8cak7Q0EQsf6cqOf+Z848yMzhi9Xo/OoTyXJedrCc+U5ehxVcZp1Bhh+FTMcJ4bp0GNqgJT5nqvA4tD2FwvuAo609N2g7q/ffJ9l/wzV+toXrXJNG0yrph0bdYhaQf1LAK1yfWWy41DwLgU/vB9j7xmlTy3qo5JpqMEKGsuR5adU0fTtABUjNRGCFESCGocfKSjgwq5zeqFTOMCvH9WoUa9on7bDLK0kidn5SEJRA4QICt0ux368undpZknCe2j0NF7D56TYWQKgHiFm7/cvYkDxGHgOb94R40JHxft+VvqU00LBF7whADh4mRmxqD7j9bp5Pgr1fc/TAwG5qs3H9PCjbv9a/3ZcXL8TY1e3ERhGqrZ0azx1DykduvwQqaz15d5qi5z21mZHba6jjHY8r7T3MLtAQRMdj9vk7OaZ9In6mFTjeJ8v0GAdWSqem5Na2rZWXXMyHoRF6Z+fX9HzRb4DEEEdD792NtRhR6AHL0IeuMEYNIw7o0jLHDoINab05b+iyYu223NC2akd+hpJjPc005n8KX+tqqODaFTsPBIw83zvHmJEJNSChEqhQiVQoRKIUKlEKH+GwhXnfA+Yerm4gmIba7XiOA/OdpNM2NK7FcQcN0yDHMdGbPBUfyI9x6TzJhLbB5JbFvhmChQsFcsORLpohkTqeifdmBq9zWcMUUbXMXowNyk4K95CSh+OJuUMREDEdt0Qgzkr5qYMVk18XpDmr0oycWiFNzXaLArz0YzZjSyjxBMKxR86TJpduV/AFlFEDYNhciRAAAAAElFTkSuQmCC;" parent="1T_O8FafnoM-xf-Qj9W--18" vertex="1">
          <mxGeometry x="120.75" y="27.5" width="51.56" height="50" as="geometry" />
        </mxCell>
        <mxCell id="1T_O8FafnoM-xf-Qj9W--21" value="" style="shape=image;verticalLabelPosition=bottom;labelBackgroundColor=default;verticalAlign=top;aspect=fixed;imageAspect=0;image=data:image/png,iVBORw0KGgoAAAANSUhEUgAAABcAAAAICAYAAAASqmTuAAABkElEQVR4nGP5//8/Ay7w+fNn3osXL+rb2NgcwSb/8eNHfiD4iEs/CzbBe/fuKU2YMKFgwYIFCUFBQetwGb58+fLIJUuWxHR2dpZbW1sfxWk40AeMu3fvdp00aVLetm3bvEB8kDgHB8cPXC778eMHx9GjR61Blvv5+W3q7u4uVVNTuwU3HOT1uXPnJk+dOjX7zp07KugG/Pv3j+n9+/eCbGxsv9jZ2X+ysLD8QTYcxt60aZMfyFEpKSlzamtrm6WkpJ6x/Pnzh+Xly5fiT58+lcbmurNnzxqXl5d3/vr1i+3nz5/sf//+ZQZZArLs3LlzRshqQWbNmDEjY+HChfFFRUV9LIKCgu/b29src3NzJ1dVVbUtXrw4FuRamIbQ0NDVFRUVHcg+AVkEwmVlZV0XLlwwQHeQiIjIGwEBgQ/wMAd5AxSBJSUlPSBLNm/e7IstzJmYmP6BxLDFhbOz896cnJwpvr6+m5mZmf9ipBYdHZ0roPADRRQoOPBF6IcPHwR4eXk/x8XFLQL5XF1d/SayPADudcPGIobdqwAAAABJRU5ErkJggg==;" parent="1T_O8FafnoM-xf-Qj9W--18" vertex="1">
          <mxGeometry x="81.25" y="47.78" width="41.5" height="14.43" as="geometry" />
        </mxCell>
        <mxCell id="1T_O8FafnoM-xf-Qj9W--22" value="&lt;div&gt;&lt;span&gt;EVENT BUS&lt;/span&gt;&lt;/div&gt;" style="shape=cylinder3;whiteSpace=wrap;html=1;boundedLbl=1;backgroundOutline=1;size=15;fillColor=#B8B8B8;align=center;direction=east;labelPosition=center;verticalLabelPosition=middle;verticalAlign=middle;labelBackgroundColor=none;labelBorderColor=none;" parent="1" vertex="1">
          <mxGeometry x="711" y="185.5" width="49" height="293" as="geometry" />
        </mxCell>
        <mxCell id="1T_O8FafnoM-xf-Qj9W--26" value="" style="swimlane;startSize=0;labelBackgroundColor=#ADADAD;fillColor=#969696;dashed=1;collapsible=0;" parent="1" vertex="1">
          <mxGeometry x="180" y="40" width="650" height="590" as="geometry" />
        </mxCell>
        <mxCell id="1T_O8FafnoM-xf-Qj9W--23" value="" style="sketch=0;aspect=fixed;html=1;points=[];align=center;image;fontSize=12;image=img/lib/mscae/Service_Bus.svg;labelBackgroundColor=#ADADAD;fillColor=#969696;" parent="1T_O8FafnoM-xf-Qj9W--26" vertex="1">
          <mxGeometry x="600" y="337" width="40" height="40" as="geometry" />
        </mxCell>
        <mxCell id="3FGfihxfecPR4Q-3VI60-1" value="" style="endArrow=classic;html=1;rounded=0;" edge="1" parent="1T_O8FafnoM-xf-Qj9W--26">
          <mxGeometry width="50" height="50" relative="1" as="geometry">
            <mxPoint x="520" y="470" as="sourcePoint" />
            <mxPoint x="540" y="436.5" as="targetPoint" />
          </mxGeometry>
        </mxCell>
        <mxCell id="3FGfihxfecPR4Q-3VI60-2" value="" style="shape=mxgraph.signs.tech.mail;html=1;pointerEvents=1;fillColor=#000000;strokeColor=none;verticalLabelPosition=bottom;verticalAlign=top;align=center;" vertex="1" parent="1T_O8FafnoM-xf-Qj9W--26">
          <mxGeometry x="503" y="471" width="20" height="20" as="geometry" />
        </mxCell>
        <mxCell id="3FGfihxfecPR4Q-3VI60-7" value="" style="endArrow=classic;html=1;rounded=0;exitX=1;exitY=0.75;exitDx=0;exitDy=0;entryX=1;entryY=0.75;entryDx=0;entryDy=0;" edge="1" parent="1" target="1T_O8FafnoM-xf-Qj9W--18">
          <mxGeometry width="50" height="50" relative="1" as="geometry">
            <mxPoint x="685" y="529.5" as="sourcePoint" />
            <mxPoint x="665" y="563" as="targetPoint" />
          </mxGeometry>
        </mxCell>
      </root>
    </mxGraphModel>
  </diagram>
</mxfile>
